<?xml version="1.0" encoding="utf-8"?>
<svg version="1.1" id="Layer_1" xmlns="http://www.w3.org/2000/svg" xmlns:xlink="http://www.w3.org/1999/xlink" x="0px" y="0px"
	 viewBox="0 0 2000 2000" style="enable-background:new 0 0 2000 2000;" xml:space="preserve">
<style type="text/css">
	.st0{fill:url(#SVGID_1_);}
	.st1{fill:url(#SVGID_00000026135921777949614260000007952335400742824600_);}
	.st2{fill:url(#SVGID_00000100343729608598237540000005756514704601769091_);}
	.st3{fill:url(#SVGID_00000084527591859123239460000012067340265254089350_);}
	.st4{fill:url(#SVGID_00000159458176845478987690000006608465605834481049_);}
	.st5{fill:url(#SVGID_00000037692475293218055730000012904591389799038616_);}
	.st6{fill:url(#SVGID_00000022524907118324924400000002301905475935822753_);}
	.st7{fill:#FFFFFF;}
	.st8{fill:url(#SVGID_00000123441569349575777410000000308379900262785974_);}
</style>
<g>
	<g>
		<g>
			<g>
				<linearGradient id="SVGID_1_" gradientUnits="userSpaceOnUse" x1="2318.3936" y1="182.5196" x2="466.5894" y2="2034.3237">
					<stop  offset="0" style="stop-color:#FFBB00"/>
					<stop  offset="0.2143" style="stop-color:#FF9806"/>
					<stop  offset="0.6865" style="stop-color:#FF3E15"/>
					<stop  offset="1" style="stop-color:#FF0020"/>
				</linearGradient>
				<path class="st0" d="M812.05,1662.02c0.6,25.95,1.17,50.19,1.17,72.26h0.03v176.5h331.97v-176.5h-138.3
					c0-23.42-0.58-49.17-1.21-76.72c-4.18-181.37-9.88-429.79,146.57-589.87c113.91-116.55,181.07-175.65,445.41-175.65v-193.7
					c-318.44,0-432.21,78.72-583.93,233.98C800.3,1150.7,807.36,1458.4,812.05,1662.02z"/>
				
					<linearGradient id="SVGID_00000021104620227078224580000000879759650030323637_" gradientUnits="userSpaceOnUse" x1="684.9488" y1="-121.1325" x2="-360.8012" y2="1059.553" gradientTransform="matrix(-1 0 0 -1 1291.0691 1834.2759)">
					<stop  offset="0" style="stop-color:#FFBB00;stop-opacity:0"/>
					<stop  offset="0.1072" style="stop-color:#FF9806;stop-opacity:0"/>
					<stop  offset="0.3432" style="stop-color:#FF3E15;stop-opacity:0"/>
					<stop  offset="0.5" style="stop-color:#FF0020;stop-opacity:0"/>
					<stop  offset="1" style="stop-color:#8D0020"/>
				</linearGradient>
				<path style="fill:url(#SVGID_00000021104620227078224580000000879759650030323637_);" d="M812.05,1662.02
					c0.6,25.95,1.17,50.19,1.17,72.26h0.03v176.5h331.97v-176.5h-138.3c0-23.42-0.58-49.17-1.21-76.72
					c-4.18-181.37-9.88-429.79,146.57-589.87c113.91-116.55,181.07-175.65,445.41-175.65v-193.7
					c-318.44,0-432.21,78.72-583.93,233.98C800.3,1150.7,807.36,1458.4,812.05,1662.02z"/>
				
					<linearGradient id="SVGID_00000125589423566089690550000009373882774839664259_" gradientUnits="userSpaceOnUse" x1="2286.853" y1="147.1176" x2="423.276" y2="2010.6947">
					<stop  offset="0" style="stop-color:#FFBB00"/>
					<stop  offset="0.2143" style="stop-color:#FF9806"/>
					<stop  offset="0.6865" style="stop-color:#FF3E15"/>
					<stop  offset="1" style="stop-color:#FF0020"/>
				</linearGradient>
				<path style="fill:url(#SVGID_00000125589423566089690550000009373882774839664259_);" d="M1406.48,89.22
					c113.26,0,208.44,27.07,285.51,81.17c77.08,54.13,115.61,127.12,115.61,218.97c0,45.3-11.63,111.98-34.92,200.09
					c-23.27,88.09-34.92,154.78-34.92,200.09c0,103.82,65.75,159.81,197.25,168.01v128.35c-131.5,9.44-197.25,70.79-197.25,184.05
					c0,40.26,11.65,98.93,34.92,176.01c23.28,77.07,34.92,135.74,34.92,176.01c0,87.46-38.68,157.46-116.08,210
					c-77.4,52.54-169.57,78.82-276.54,78.82h-284.35v-176.5h309.84c84.32,0,126.47-46.88,126.47-140.63
					c0-35.25-9.92-86.35-29.73-153.36c-19.83-67.01-29.73-118.15-29.73-153.38c0-96.9,60.41-183.42,181.2-259.55
					c-120.8-62.93-181.2-140.31-181.2-232.18c0-39.01,9.9-96.11,29.73-171.3c19.81-75.19,29.73-131.97,29.73-170.36
					c0-44.03-9.28-80.06-27.85-108.06c-18.54-28-45.29-47.2-80.22-57.57c-34.92-10.39-105.54-15.57-211.88-15.57V89.22H1406.48z"/>
			</g>
		</g>
	</g>
	<g>
		<g>
			<g>
				
					<linearGradient id="SVGID_00000078752164555358983480000003073077286300775335_" gradientUnits="userSpaceOnUse" x1="1393.8796" y1="44.5916" x2="348.1296" y2="1225.2771">
					<stop  offset="0" style="stop-color:#FFBB00"/>
					<stop  offset="0.2143" style="stop-color:#FF9806"/>
					<stop  offset="0.6865" style="stop-color:#FF3E15"/>
					<stop  offset="1" style="stop-color:#FF0020"/>
				</linearGradient>
				<path style="fill:url(#SVGID_00000078752164555358983480000003073077286300775335_);" d="M1187.95,337.98
					c-0.6-25.95-1.17-50.19-1.17-72.26h-0.03V89.22H854.78v176.5h138.3c0,23.42,0.58,49.17,1.21,76.72
					c4.18,181.37,9.88,429.79-146.57,589.87c-113.91,116.55-181.07,175.65-445.41,175.65v193.7c318.44,0,432.21-78.72,583.93-233.98
					C1199.7,849.3,1192.64,541.6,1187.95,337.98z"/>
				
					<linearGradient id="SVGID_00000141432295555443076320000006736418746881324709_" gradientUnits="userSpaceOnUse" x1="1393.8796" y1="44.5916" x2="348.1296" y2="1225.2771">
					<stop  offset="0" style="stop-color:#FFBB00;stop-opacity:0"/>
					<stop  offset="0.1072" style="stop-color:#FF9806;stop-opacity:0"/>
					<stop  offset="0.3432" style="stop-color:#FF3E15;stop-opacity:0"/>
					<stop  offset="0.5" style="stop-color:#FF0020;stop-opacity:0"/>
					<stop  offset="1" style="stop-color:#8D0020"/>
				</linearGradient>
				<path style="fill:url(#SVGID_00000141432295555443076320000006736418746881324709_);" d="M1187.95,337.98
					c-0.6-25.95-1.17-50.19-1.17-72.26h-0.03V89.22H854.78v176.5h138.3c0,23.42,0.58,49.17,1.21,76.72
					c4.18,181.37,9.88,429.79-146.57,589.87c-113.91,116.55-181.07,175.65-445.41,175.65v193.7c318.44,0,432.21-78.72,583.93-233.98
					C1199.7,849.3,1192.64,541.6,1187.95,337.98z"/>
				
					<linearGradient id="SVGID_00000170958641809183619400000008675185465531956102_" gradientUnits="userSpaceOnUse" x1="1407.8218" y1="41.7179" x2="356.2823" y2="1228.9399">
					<stop  offset="0" style="stop-color:#FFBB00"/>
					<stop  offset="0.2143" style="stop-color:#FF9806"/>
					<stop  offset="0.6865" style="stop-color:#FF3E15"/>
					<stop  offset="1" style="stop-color:#FF0020"/>
				</linearGradient>
				<path style="fill:url(#SVGID_00000170958641809183619400000008675185465531956102_);" d="M593.52,1910.78
					c-113.26,0-208.44-27.07-285.51-81.17c-77.08-54.13-115.61-127.12-115.61-218.97c0-45.3,11.63-111.98,34.92-200.09
					c23.27-88.09,34.92-154.78,34.92-200.09c0-103.82-65.75-159.81-197.25-168.01V914.12c131.5-9.44,197.25-70.79,197.25-184.05
					c0-40.26-11.65-98.93-34.92-176.01c-23.28-77.07-34.92-135.74-34.92-176.01c0-87.46,38.68-157.46,116.08-210
					s169.57-78.82,276.54-78.82h283.69v176.5H559.53c-84.32,0-126.47,46.88-126.47,140.63c0,35.25,9.92,86.35,29.73,153.36
					c19.83,67.01,29.73,118.15,29.73,153.38c0,96.9-60.41,183.42-181.2,259.55c120.8,62.93,181.2,140.31,181.2,232.18
					c0,39.01-9.9,96.11-29.73,171.3c-19.81,75.19-29.73,131.97-29.73,170.36c0,44.03,9.28,80.06,27.85,108.06
					c18.54,28,45.29,47.2,80.22,57.57c34.92,10.39,105.54,15.57,211.88,15.57v183.11H593.52z"/>
			</g>
		</g>
	</g>
</g>
</svg>
