<?xml version="1.0" encoding="utf-8"?>
<svg version="1.1" id="Layer_1" xmlns="http://www.w3.org/2000/svg" xmlns:xlink="http://www.w3.org/1999/xlink" x="0px" y="0px"
	 viewBox="0 0 2000 2000" style="enable-background:new 0 0 2000 2000;" xml:space="preserve">
<style type="text/css">
	.st0{fill:url(#SVGID_1_);}
	.st1{fill:url(#SVGID_00000036247766286917573350000012758207141992283292_);}
	.st2{fill:url(#SVGID_00000032609787571928732120000007064560702498812324_);}
	.st3{fill:url(#SVGID_00000016036387537740562640000004000795902236291774_);}
	.st4{fill:url(#SVGID_00000121976252238458203360000003722583145558245038_);}
	.st5{fill:url(#SVGID_00000178165532798455918590000015711644330615788478_);}
	.st6{fill:url(#SVGID_00000042700251343836264780000008667157717705418638_);}
	.st7{fill:#FFFFFF;}
	.st8{fill:url(#SVGID_00000006700471855593617690000003965226592937577403_);}
</style>
<g>
	<g>
		<g>
			<g>
				<linearGradient id="SVGID_1_" gradientUnits="userSpaceOnUse" x1="740.5205" y1="740.1359" x2="102.0645" y2="1302.5853">
					<stop  offset="0" style="stop-color:#FFFFFF"/>
					<stop  offset="0.9987" style="stop-color:#FFFFFF;stop-opacity:0"/>
				</linearGradient>
				<path class="st0" d="M1187.95,337.98c-0.6-25.95-1.17-50.19-1.17-72.26h-0.03V89.22H854.78v176.5h138.3
					c0,23.42,0.58,49.17,1.21,76.72c4.18,181.37,9.88,429.79-146.57,589.87c-113.91,116.55-181.07,175.65-445.41,175.65v193.7
					c318.44,0,432.21-78.72,583.93-233.98C1199.7,849.3,1192.64,541.6,1187.95,337.98z"/>
				<path class="st7" d="M593.52,1910.78c-113.26,0-208.44-27.07-285.51-81.17c-77.08-54.13-115.61-127.12-115.61-218.97
					c0-45.3,11.63-111.98,34.92-200.09c23.27-88.09,34.92-154.78,34.92-200.09c0-103.82-65.75-159.81-197.25-168.01V914.12
					c131.5-9.44,197.25-70.79,197.25-184.05c0-40.26-11.65-98.93-34.92-176.01c-23.28-77.07-34.92-135.74-34.92-176.01
					c0-87.46,38.68-157.46,116.08-210s169.57-78.82,276.54-78.82h296.53v176.5H559.53c-84.32,0-126.47,46.88-126.47,140.63
					c0,35.25,9.92,86.35,29.73,153.36c19.83,67.01,29.73,118.15,29.73,153.38c0,96.9-60.41,183.42-181.2,259.55
					c120.8,62.93,181.2,140.31,181.2,232.18c0,39.01-9.9,96.11-29.73,171.3c-19.81,75.19-29.73,131.97-29.73,170.36
					c0,44.03,9.28,80.06,27.85,108.06c18.54,28,45.29,47.2,80.22,57.57c34.92,10.39,105.54,15.57,211.88,15.57v183.11H593.52z"/>
			</g>
		</g>
	</g>
	<g>
		<g>
			<g>
				
					<linearGradient id="SVGID_00000111897836148486158800000012656675946636783270_" gradientUnits="userSpaceOnUse" x1="-4166.7266" y1="620.0251" x2="-4805.1826" y2="1182.4745" gradientTransform="matrix(-1 0 0 -1 -2907.2468 1879.8892)">
					<stop  offset="0" style="stop-color:#FFFFFF"/>
					<stop  offset="0.9987" style="stop-color:#FFFFFF;stop-opacity:0"/>
				</linearGradient>
				<path style="fill:url(#SVGID_00000111897836148486158800000012656675946636783270_);" d="M812.05,1662.02
					c0.6,25.95,1.17,50.19,1.17,72.26h0.03v176.5h331.97v-176.5h-138.3c0-23.42-0.58-49.17-1.21-76.72
					c-4.18-181.37-9.88-429.79,146.57-589.87c113.91-116.55,181.07-175.65,445.41-175.65v-193.7
					c-318.44,0-432.21,78.72-583.93,233.98C800.3,1150.7,807.36,1458.4,812.05,1662.02z"/>
				<path class="st7" d="M1406.48,89.22c113.26,0,208.44,27.07,285.51,81.17c77.08,54.13,115.61,127.12,115.61,218.97
					c0,45.3-11.63,111.98-34.92,200.09c-23.27,88.09-34.92,154.78-34.92,200.09c0,103.82,65.75,159.81,197.25,168.01v128.35
					c-131.5,9.44-197.25,70.79-197.25,184.05c0,40.26,11.65,98.93,34.92,176.01c23.28,77.07,34.92,135.74,34.92,176.01
					c0,87.46-38.68,157.46-116.08,210c-77.4,52.54-169.57,78.82-276.54,78.82h-317.67v-176.5h343.16
					c84.32,0,126.47-46.88,126.47-140.63c0-35.25-9.92-86.35-29.73-153.36c-19.83-67.01-29.73-118.15-29.73-153.38
					c0-96.9,60.41-183.42,181.2-259.55c-120.8-62.93-181.2-140.31-181.2-232.18c0-39.01,9.9-96.11,29.73-171.3
					c19.81-75.19,29.73-131.97,29.73-170.36c0-44.03-9.28-80.06-27.85-108.06c-18.54-28-45.29-47.2-80.22-57.57
					c-34.92-10.39-105.54-15.57-211.88-15.57V89.22H1406.48z"/>
			</g>
		</g>
	</g>
</g>
</svg>
